<?xml version="1.0" encoding="UTF-8"?>
<!DOCTYPE svg PUBLIC "-//W3C//DTD SVG 1.1//EN" "http://www.w3.org/Graphics/SVG/1.1/DTD/svg11.dtd">
<!-- Creator: CorelDRAW X7 -->
<svg xmlns="http://www.w3.org/2000/svg" xml:space="preserve" width="450.829mm" height="178.822mm" version="1.1" style="shape-rendering:geometricPrecision; text-rendering:geometricPrecision; image-rendering:optimizeQuality; fill-rule:evenodd; clip-rule:evenodd"
viewBox="0 0 2704 1072"
 xmlns:xlink="http://www.w3.org/1999/xlink">
 <defs>
  <style type="text/css">
   <![CDATA[
    .fil0 {fill:#502E24}
    .fil1 {fill:#536A18}
   ]]>
  </style>
 </defs>
 <g id="Слой_x0020_1">
  <metadata id="CorelCorpID_0Corel-Layer"/>
  <g id="_2396216414432">
   <path class="fil0" d="M178 522l-67 0 0 30c-82,5 -111,32 -111,105 0,70 29,96 111,101l0 31 67 0 0 -31c81,-5 110,-31 111,-101 -1,-73 -30,-100 -111,-105l0 -30zm-64 188c-39,-3 -47,-15 -47,-53 0,-41 8,-54 47,-57l0 110zm60 -110c39,3 48,17 48,57 0,38 -9,50 -48,53l0 -110zm275 124l15 58 68 0 -67 -227c-3,-10 -12,-17 -22,-17l-62 0c-11,0 -20,7 -22,17l-67 227 68 0 14 -58 75 0zm-12 -48l-50 0 15 -63c2,-8 4,-17 5,-25l10 0c0,8 3,17 4,25l16 63zm182 -42l0 -47 105 0 5 -49c-29,-2 -58,-3 -89,-3 -28,0 -58,1 -88,3l0 244 2 0c32,2 60,3 100,3 62,0 91,-14 91,-76 0,-57 -24,-75 -96,-75l-30 0zm0 103l0 -60 30 0c25,0 30,6 30,30 0,25 -5,30 -30,30l-30 0zm158 45l66 0 0 -87c13,1 28,2 41,2 64,0 87,-17 87,-81 0,-64 -23,-82 -95,-82 -47,0 -68,1 -99,4l0 244zm66 -133l0 -66 31 0c24,0 31,6 31,33 0,26 -7,33 -31,33l-31 0zm370 133l0 -244 -64 0 -70 126c-6,11 -11,23 -15,35l-3 0c2,-13 4,-26 4,-37l0 -124 -63 0 0 244 64 0 70 -128c6,-11 11,-23 14,-35l3 0c-2,12 -4,24 -4,36l0 127 64 0zm169 -128c48,-7 50,-29 77,-116l-68 0c-19,73 -24,95 -58,95l-12 0c2,-10 3,-21 3,-30l0 -65 -66 0 0 244 66 0 0 -82c0,-6 -1,-15 -3,-22l13 0c34,0 37,16 62,104l69 0c-30,-100 -33,-119 -83,-126l0 -2zm243 70l14 58 68 0 -66 -227c-3,-10 -12,-17 -23,-17l-61 0c-11,0 -20,7 -23,17l-67 227 68 0 15 -58 75 0zm-13 -48l-50 0 16 -63c2,-8 3,-17 5,-25l9 0c1,8 3,17 5,25l15 63zm258 -42l0 -47 105 0 5 -49c-29,-2 -58,-3 -89,-3 -28,0 -58,1 -88,3l0 244 2 0c32,2 60,3 100,3 62,0 91,-14 91,-76 0,-57 -24,-75 -96,-75l-30 0zm0 103l0 -60 30 0c25,0 29,6 29,30 0,25 -4,30 -29,30l-30 0zm291 -13l15 58 68 0 -67 -227c-3,-10 -12,-17 -23,-17l-61 0c-11,0 -20,7 -22,17l-67 227 68 0 14 -58 75 0zm-12 -48l-50 0 15 -63c2,-8 4,-17 5,-25l10 0c0,8 2,17 4,25l16 63zm321 -138l-66 0 0 90 -73 0 0 -90 -67 0 0 244 67 0 0 -105 73 0 0 105 66 0 0 -244zm111 87l0 -87 -66 0 0 244 2 0c31,2 56,3 104,3 58,0 83,-18 83,-80 0,-62 -24,-80 -95,-80l-28 0zm0 112l0 -70 28 0c24,0 28,8 28,36 0,28 -4,34 -28,34l-28 0z"/>
   <path class="fil0" d="M694 995c-14,2 -30,3 -38,3 -22,0 -30,-8 -30,-35 0,-28 8,-35 30,-35 10,0 22,0 36,0l4 -23c-14,-6 -33,-8 -46,-8 -46,0 -62,18 -62,66 0,47 16,65 62,65 16,0 34,-3 48,-9l-4 -24zm135 -65l0 -29 -119 0 0 29 41 0 0 95 37 0 0 -95 41 0zm51 -29l-30 0 0 171 36 0 0 -30c1,-9 0,-18 0,-26 11,8 26,12 41,12 31,0 48,-15 48,-64 0,-42 -13,-66 -43,-66 -19,0 -39,9 -50,21l-2 -18zm6 38c12,-8 20,-12 31,-12 14,0 19,7 19,37 0,31 -6,36 -21,36 -11,0 -19,-2 -29,-5l0 -56zm173 -42c-46,0 -64,18 -64,66 0,47 18,65 64,65 47,0 64,-18 64,-65 0,-48 -17,-66 -64,-66zm0 28c19,0 25,8 25,38 0,30 -6,37 -25,37 -19,0 -25,-7 -25,-37 0,-30 6,-38 25,-38zm210 100l0 -124 -31 0 -48 67c-3,5 -6,11 -9,17l-1 0c1,-7 2,-12 2,-18l0 -66 -33 0 0 124 31 0 47 -66c3,-5 7,-12 9,-19l1 0c0,8 -1,14 -1,20l0 65 33 0zm148 -124c-8,0 -12,4 -14,11l-15 55c-2,6 -2,12 -4,19l-2 0c-1,-7 -2,-13 -4,-19l-15 -55c-2,-7 -6,-11 -14,-11l-33 0c-9,0 -13,4 -13,13l-4 111 33 0 3 -97 4 0 20 69c2,8 6,12 14,12l20 0c8,0 12,-4 14,-12l20 -69 4 0 3 97 34 0 -4 -111c0,-9 -5,-13 -13,-13l-34 0zm244 -62c-22,12 -42,7 -66,15 -39,13 -46,45 -46,95 0,44 3,79 64,79 47,0 61,-23 61,-64 0,-42 -13,-59 -52,-59 -26,0 -37,9 -45,20l-1 0c1,-4 2,-11 5,-18 3,-10 9,-21 26,-26 22,-6 38,0 61,-13l-7 -29zm-48 92c17,0 22,6 22,33 0,29 -5,36 -23,36 -19,0 -24,-7 -24,-36 0,-24 3,-33 25,-33zm91 -2c20,-2 40,-2 52,-2 16,0 20,3 20,16l0 5 -44 0c-24,0 -38,12 -38,31l0 13c0,23 18,36 40,36 23,0 38,-12 46,-22l4 19 30 0 0 -82c0,-35 -18,-46 -49,-46 -17,0 -47,3 -65,6l4 26zm27 53c0,-7 3,-11 12,-12l33 0 0 18c-10,8 -22,12 -31,12 -10,0 -14,-4 -14,-13l0 -5zm233 -81l-37 0 0 45 -46 0 0 -45 -37 0 0 124 37 0 0 -53 46 0 0 53 37 0 0 -124zm152 124l0 -124 -32 0 -47 67c-3,5 -7,11 -9,17l-1 0c1,-7 1,-12 1,-18l0 -66 -33 0 0 124 32 0 47 -66c3,-5 7,-12 9,-19l1 0c-1,8 -1,14 -1,20l0 65 33 0z"/>
   <g>
    <path class="fil1" d="M1369 138c-12,15 -12,11 -11,35 0,15 0,31 1,45 5,0 52,-33 85,-40 -24,14 -49,27 -69,43 -18,14 -16,10 -16,38 0,11 -1,48 0,54 20,-8 35,-22 60,-24 -7,6 -60,25 -61,44 -1,34 -2,69 -2,104 15,-4 40,-27 49,-37 5,-6 13,-18 14,-27 3,-15 -6,-20 -15,-24 5,-2 4,-3 10,-3 5,-5 10,-7 16,-11 3,-2 5,-4 7,-6 3,-3 3,-5 6,-7 4,-6 6,-6 9,-13 3,-6 5,-12 8,-17 -2,-22 -1,-38 -26,-39l25 -23c4,-8 10,-14 15,-24 5,-10 7,-20 10,-27 1,-24 -5,-45 -32,-42l-9 2c9,-22 20,-33 18,-64 -11,-29 -29,-26 -60,-22 0,-18 -1,-30 -11,-40 -9,-8 -22,-13 -38,-13 -16,0 -30,5 -38,14 -10,9 -11,22 -11,39 -13,-1 -53,-13 -60,24 -2,30 10,42 18,62 -8,-1 -15,-4 -24,-1 -8,3 -9,9 -13,12 -4,14 -3,16 -4,30 2,4 5,17 8,22 12,26 23,33 41,50l-4 1c-6,2 -8,1 -13,6 -4,4 -6,8 -7,15 -3,18 4,26 8,39 3,2 9,11 20,20 10,9 22,12 26,18 -30,11 -8,35 0,49 3,2 27,30 49,37 1,-16 -1,-33 -1,-49 -1,-15 1,-40 -1,-53 -2,-14 -49,-37 -64,-43 13,-4 53,16 62,23 0,0 1,0 1,-1l0 -2 1 -1 0 -86c-10,-4 -24,-16 -37,-22l-41 -17c12,1 32,6 42,10 8,2 32,13 36,13 1,-16 0,-31 1,-47 0,-21 -1,-20 -12,-33 -15,-17 -30,-30 -50,-41 17,5 38,16 50,28 2,2 10,10 12,11 1,-19 1,-89 6,-102l4 112c4,-1 31,-34 59,-47 -10,12 -27,23 -47,48z"/>
    <path class="fil1" d="M1663 224c-2,18 0,15 -16,30 -10,10 -19,19 -29,28 -3,-3 -12,-54 -29,-79 6,23 14,47 17,70 2,21 4,17 -15,36 -6,7 -29,31 -34,33 -8,-17 -8,-36 -23,-53 1,9 22,54 11,67 -21,23 -43,46 -65,68 -8,-12 -9,-43 -8,-55 1,-7 3,-19 8,-27 8,-10 17,-8 25,-5 -2,-4 -1,-5 -4,-8 0,-6 -2,-11 -3,-18 0,-3 -1,-5 -1,-8 0,-3 1,-5 0,-8 2,-7 1,-8 3,-15 2,-5 5,-10 6,-15 15,-13 25,-24 41,-9l-1 -30c3,-8 3,-16 6,-26 3,-9 8,-16 11,-23 15,-16 32,-25 47,-6l4 7c9,-20 9,-34 31,-53 25,-11 34,2 51,24 12,-11 20,-18 33,-18 11,1 23,6 33,16 10,11 15,22 16,33 0,12 -8,21 -18,32 8,8 42,26 22,54 -18,21 -33,20 -51,28 6,5 12,8 16,15 3,7 0,12 1,16 -7,11 -9,12 -17,22 -4,1 -14,7 -19,9 -24,9 -36,6 -58,5l1 3c3,5 5,6 5,12 0,6 -1,10 -5,15 -9,13 -19,14 -30,19 -3,0 -13,2 -26,1 -12,-1 -21,-6 -28,-6 12,27 -18,28 -31,32 -4,-1 -37,2 -56,-8 11,-11 22,-21 33,-31 10,-9 25,-25 34,-33 11,-8 55,7 68,13 -5,-10 -43,-23 -54,-24 0,-1 0,-1 0,-1l1 -2 1 -1 55 -55c8,3 25,5 37,9l37 16c-7,-7 -24,-17 -33,-21 -6,-3 -28,-12 -31,-15 10,-10 20,-20 29,-30 14,-14 14,-13 29,-13 20,-2 38,0 59,5 -14,-7 -35,-14 -51,-14 -2,0 -13,0 -15,-1 12,-12 57,-57 62,-69l-74 69c-2,-2 2,-41 -8,-67 -1,14 3,31 0,60z"/>
    <path class="fil1" d="M1041 224c2,18 0,15 15,30 10,10 20,19 30,28 3,-3 12,-54 29,-79 -7,23 -15,47 -17,70 -2,21 -4,17 14,36 7,7 30,31 35,33 7,-17 8,-36 23,-53 -1,9 -23,54 -11,67 21,23 43,46 64,68 8,-12 9,-43 8,-55 0,-7 -3,-19 -8,-27 -7,-10 -16,-8 -25,-5 3,-4 1,-5 5,-8 0,-6 2,-11 3,-18 0,-3 0,-5 0,-8 1,-3 0,-5 0,-8 -1,-7 0,-8 -3,-15 -2,-5 -4,-10 -6,-15 -15,-13 -24,-24 -41,-9l2 -30c-3,-8 -3,-16 -6,-26 -3,-9 -8,-16 -12,-23 -14,-16 -31,-25 -46,-6l-5 7c-8,-20 -9,-34 -30,-53 -25,-11 -35,2 -52,24 -11,-11 -19,-18 -33,-18 -11,1 -22,6 -33,16 -10,11 -15,22 -15,33 0,12 7,21 18,32 -9,8 -42,26 -23,54 18,21 33,20 51,28 -6,5 -12,8 -15,15 -3,7 -1,12 -1,16 6,11 9,12 16,22 4,1 14,7 19,9 25,9 36,6 58,5l-1 3c-2,5 -4,6 -4,12 0,6 1,10 5,15 9,13 19,14 30,19 2,0 12,2 25,1 13,-1 22,-6 28,-6 -12,27 18,28 32,32 3,-1 37,2 55,-8 -10,-11 -22,-21 -32,-31 -10,-9 -25,-25 -35,-33 -10,-8 -55,7 -68,13 5,-10 44,-23 54,-24 0,-1 0,-1 0,-1l-1 -2 0 -1 -56 -55c-8,3 -25,5 -37,9l-37 16c8,-7 24,-17 33,-21 7,-3 29,-12 31,-15 -9,-10 -19,-20 -29,-30 -13,-14 -13,-13 -29,-13 -20,-2 -38,0 -58,5 14,-7 35,-14 50,-14 3,0 13,0 15,-1 -12,-12 -57,-57 -62,-69l75 69c2,-2 -2,-41 7,-67 2,14 -2,31 1,60z"/>
   </g>
  </g>
 </g>
</svg>
