<?xml version="1.0" encoding="UTF-8"?>
<!DOCTYPE svg PUBLIC "-//W3C//DTD SVG 1.1//EN" "http://www.w3.org/Graphics/SVG/1.1/DTD/svg11.dtd">
<!-- Creator: CorelDRAW 2018 (64-Bit) -->
<svg xmlns="http://www.w3.org/2000/svg" xml:space="preserve" width="109.829mm" height="55.8122mm" version="1.1" style="shape-rendering:geometricPrecision; text-rendering:geometricPrecision; image-rendering:optimizeQuality; fill-rule:evenodd; clip-rule:evenodd"
viewBox="0 0 10982.86 5581.23"
 xmlns:xlink="http://www.w3.org/1999/xlink">
 <defs>
  <style type="text/css">
   <![CDATA[
    .fil4 {fill:#142840;fill-rule:nonzero}
    .fil5 {fill:#2F4C58;fill-rule:nonzero}
    .fil2 {fill:url(#id0)}
    .fil0 {fill:url(#id1)}
    .fil3 {fill:url(#id2)}
    .fil1 {fill:url(#id3)}
   ]]>
  </style>
  <linearGradient id="id0" gradientUnits="userSpaceOnUse" x1="6463.15" y1="2663.9" x2="5069.36" y2="2663.9">
   <stop offset="0" style="stop-opacity:1; stop-color:#B3B3B3"/>
   <stop offset="0.631373" style="stop-opacity:1; stop-color:#4A8884"/>
   <stop offset="1" style="stop-opacity:1; stop-color:#2F4C58"/>
  </linearGradient>
  <linearGradient id="id1" gradientUnits="userSpaceOnUse" xlink:href="#id0" x1="4519.71" y1="436.13" x2="5913.5" y2="436.13">
  </linearGradient>
  <linearGradient id="id2" gradientUnits="userSpaceOnUse" xlink:href="#id0" x1="6605.32" y1="578.29" x2="6605.32" y2="1972.08">
  </linearGradient>
  <linearGradient id="id3" gradientUnits="userSpaceOnUse" xlink:href="#id0" x1="4377.54" y1="2521.72" x2="4377.54" y2="1127.94">
  </linearGradient>
 </defs>
 <g id="Слой_x0020_1">
  <metadata id="CorelCorpID_0Corel-Layer"/>
  <g id="_2998294082464">
   <path class="fil0" d="M4768.09 826.67c-445.4,0 -826.64,235.69 -826.64,723.34l-0.03 0c0.02,-855.75 694.25,-1549.98 1550.01,-1549.98 487.67,0 723.33,381.26 723.33,826.66l-1446.67 -0.02zm-826.64 723.34l0 0z"/>
   <path class="fil1" d="M4768.07 2273.34c0,445.4 235.69,826.64 723.34,826.64l0 0.02c-855.75,-0.01 -1549.99,-694.24 -1549.99,-1550 0,-487.67 381.27,-723.33 826.67,-723.33l-0.02 1446.67zm723.34 826.64l0 0z"/>
   <path class="fil2" d="M6214.77 2273.36c445.4,0 826.64,-235.69 826.64,-723.34l0.02 0c-0.01,855.75 -694.24,1549.98 -1550,1549.98 -487.67,0 -723.33,-381.26 -723.33,-826.66l1446.67 0.02zm826.64 -723.34l0 0z"/>
   <path class="fil3" d="M6214.79 826.67c0,-445.4 -235.69,-826.64 -723.34,-826.64l0 -0.03c855.75,0.02 1549.98,694.25 1549.98,1550.01 0,487.67 -381.26,723.33 -826.66,723.33l0.02 -1446.67zm-723.34 -826.64l0 0z"/>
  </g>
  <path class="fil4" d="M-0 3537.33l253.18 0c136.9,0 235.44,12.5 295.9,37.79 60.46,25.29 108.42,66.27 143.31,122.66 34.88,56.4 52.32,124.12 52.32,203.19 0,87.49 -22.97,160.16 -68.89,218 -45.64,57.85 -107.84,98.25 -186.62,120.92 -46.21,13.08 -130.22,19.48 -252.01,19.48l0 530.19 -237.19 0 0 -1252.23zm237.19 490.08l76.45 0c60.17,0 101.73,-4.36 125.28,-12.79 23.54,-8.72 41.85,-22.67 55.52,-42.44 13.37,-19.76 20.05,-43.6 20.05,-71.79 0,-48.55 -18.89,-84.01 -56.68,-106.1 -27.32,-16.57 -78.48,-25 -152.89,-25l-67.73 0 0 258.12zm661 -163.94l200.56 0 0 117.72c21.51,-45.92 50,-80.8 85.46,-104.64 35.75,-23.84 74.7,-35.75 116.85,-35.75 29.94,0 61.33,7.85 94.18,23.83l-72.09 200.57c-27.03,-13.66 -49.41,-20.35 -66.85,-20.35 -35.46,0 -65.7,22.09 -90.11,66.27 -24.71,44.19 -36.92,130.81 -36.92,259.87l0.87 45.05 0 373.52 -231.95 0 0 -926.09zm704.02 -380.2c40.69,0 75.57,14.82 104.64,44.18 29.36,29.36 43.89,64.82 43.89,106.68 0,41.27 -14.53,76.44 -43.31,105.51 -28.78,29.07 -63.37,43.6 -103.77,43.6 -41.28,0 -76.45,-14.82 -105.52,-44.47 -29.35,-29.65 -43.89,-65.69 -43.89,-108.13 0,-40.7 14.54,-75.29 43.31,-104.06 28.78,-28.78 63.66,-43.31 104.65,-43.31zm-116.57 380.2l231.96 0 0 926.09 -231.96 0 0 -926.09zm343.87 0l237.77 0 233.13 546.47 235.15 -546.47 235.74 0 -398.52 926.09 -148.24 0 -395.03 -926.09zm1760.62 0l231.96 0 0 926.09 -231.96 0 0 -98.54c-45.34,43.02 -90.98,73.83 -136.61,92.73 -45.64,18.89 -95.35,28.48 -148.54,28.48 -120.05,0 -223.53,-46.21 -311.02,-138.94 -87.49,-92.43 -131.1,-207.54 -131.1,-345.03 0,-142.72 42.44,-259.57 127.03,-350.85 84.59,-90.98 187.19,-136.61 308.11,-136.61 55.81,0 107.85,10.46 156.68,31.1 48.83,20.64 93.89,52.03 135.45,93.31l0 -101.74zm-244.45 190.1c-72.09,0 -131.97,25.29 -179.35,76.16 -47.67,50.58 -71.51,115.69 -71.51,195.04 0,79.94 24.13,145.63 72.67,197.37 48.54,51.45 108.13,77.32 179.06,77.32 72.96,0 133.71,-25.29 181.67,-76.16 48.25,-50.58 72.38,-117.14 72.38,-199.4 0,-80.52 -24.13,-145.63 -72.38,-195.63 -47.96,-49.7 -109,-74.7 -182.54,-74.7zm738.31 -531.93l231.95 0 0 341.83 137.78 0 0 200.57 -137.78 0 0 725.52 -231.95 0 0 -725.52 -118.6 0 0 -200.57 118.6 0 0 -341.83zm1421.97 870.28l-745.58 0c10.76,65.98 39.53,118.59 86.04,157.83 46.51,38.95 106.1,58.43 178.19,58.43 86.62,0 160.74,-30.52 222.94,-91.56l194.76 92.14c-48.55,69.18 -106.97,120.34 -174.7,153.77 -68.02,33.13 -148.53,49.7 -241.84,49.7 -144.76,0 -262.77,-45.63 -353.75,-137.2 -90.98,-91.27 -136.62,-205.79 -136.62,-343.28 0,-140.98 45.64,-258.12 136.62,-351.14 90.98,-93.31 204.92,-139.81 342.41,-139.81 145.63,0 264.23,46.5 355.5,139.23 91.27,93.02 136.91,215.39 136.91,367.99l-0.88 43.9zm-231.08 -181.38c-15.41,-50.58 -45.64,-91.86 -90.69,-123.54 -45.35,-31.69 -97.67,-47.38 -157.55,-47.38 -64.82,0 -121.5,17.73 -170.63,53.48 -30.52,22.09 -59,61.34 -85.16,117.44l504.03 0zm936.55 -673.21l683.66 0 0 233.7 -446.47 0 0 224.99 446.47 0 0 230.21 -446.47 0 0 329.63 446.47 0 0 233.7 -683.66 0 0 -1252.23zm1445.82 457.23l-143.6 144.47c-58.13,-58.14 -111.03,-87.2 -158.7,-87.2 -25.87,0 -46.22,5.52 -61.05,16.57 -14.82,11.04 -22.09,24.7 -22.09,40.98 0,12.5 4.65,23.84 13.95,34.3 9.31,10.46 32.56,24.71 69.48,43.02l84.87 42.44c89.53,43.89 151.15,88.95 184.58,134.58 33.43,45.93 50,99.41 50,161.04 0,81.97 -30.23,150.56 -90.69,205.21 -60.46,54.94 -141.56,82.26 -243.3,82.26 -134.87,0 -243,-52.61 -323.52,-158.12l143.3 -155.81c27.33,31.69 59.3,57.56 96.22,77.03 36.62,19.48 69.18,29.36 97.66,29.36 30.53,0 55.52,-7.27 74.13,-22.09 18.89,-14.83 28.19,-31.68 28.19,-50.87 0,-35.75 -33.72,-70.63 -101.44,-104.35l-78.2 -39.24c-149.98,-75.29 -224.98,-169.47 -224.98,-282.54 0,-72.96 28.2,-135.45 84.59,-187.19 56.39,-51.74 128.48,-77.61 216.26,-77.61 60.17,0 116.56,13.37 169.76,39.82 52.9,26.45 97.66,64.53 134.58,113.94zm228.47 -472.92l231.95 0 0 341.83 137.78 0 0 200.57 -137.78 0 0 725.52 -231.95 0 0 -725.52 -118.6 0 0 -200.57 118.6 0 0 -341.83zm1180.42 341.83l231.96 0 0 926.09 -231.96 0 0 -98.54c-45.34,43.02 -90.98,73.83 -136.61,92.73 -45.64,18.89 -95.35,28.48 -148.54,28.48 -120.05,0 -223.53,-46.21 -311.02,-138.94 -87.49,-92.43 -131.1,-207.54 -131.1,-345.03 0,-142.72 42.44,-259.57 127.03,-350.85 84.59,-90.98 187.19,-136.61 308.11,-136.61 55.81,0 107.85,10.46 156.68,31.1 48.83,20.64 93.89,52.03 135.45,93.31l0 -101.74zm-244.45 190.1c-72.09,0 -131.97,25.29 -179.35,76.16 -47.67,50.58 -71.51,115.69 -71.51,195.04 0,79.94 24.13,145.63 72.67,197.37 48.54,51.45 108.13,77.32 179.06,77.32 72.96,0 133.71,-25.29 181.67,-76.16 48.25,-50.58 72.38,-117.14 72.38,-199.4 0,-80.52 -24.13,-145.63 -72.38,-195.63 -47.96,-49.7 -109,-74.7 -182.54,-74.7zm738.31 -531.93l231.95 0 0 341.83 137.78 0 0 200.57 -137.78 0 0 725.52 -231.95 0 0 -725.52 -118.6 0 0 -200.57 118.6 0 0 -341.83zm1421.97 870.28l-745.58 0c10.76,65.98 39.53,118.59 86.04,157.83 46.51,38.95 106.1,58.43 178.19,58.43 86.62,0 160.74,-30.52 222.94,-91.56l194.76 92.14c-48.55,69.18 -106.97,120.34 -174.7,153.77 -68.02,33.13 -148.53,49.7 -241.84,49.7 -144.76,0 -262.77,-45.63 -353.75,-137.2 -90.98,-91.27 -136.62,-205.79 -136.62,-343.28 0,-140.98 45.64,-258.12 136.62,-351.14 90.98,-93.31 204.92,-139.81 342.41,-139.81 145.63,0 264.23,46.5 355.5,139.23 91.27,93.02 136.91,215.39 136.91,367.99l-0.88 43.9zm-231.08 -181.38c-15.41,-50.58 -45.64,-91.86 -90.69,-123.54 -45.35,-31.69 -97.67,-47.38 -157.55,-47.38 -64.82,0 -121.5,17.73 -170.63,53.48 -30.52,22.09 -59,61.34 -85.16,117.44l504.03 0z"/>
  <path class="fil5" d="M1151.8 5280.65l139.15 0 0 -132.89 92.54 0 0 369.45 -92.54 0 0 -153.07 -139.15 0 0 153.07 -92.53 0 0 -369.45 92.53 0 0 132.89zm694.83 77.93l-297.44 0c4.3,26.32 15.78,47.31 34.33,62.96 18.55,15.54 42.32,23.31 71.08,23.31 34.56,0 64.13,-12.17 88.94,-36.53l77.7 36.76c-19.37,27.6 -42.68,48.01 -69.69,61.35 -27.14,13.22 -59.26,19.82 -96.48,19.82 -57.75,0 -104.83,-18.2 -141.13,-54.73 -36.29,-36.41 -54.5,-82.1 -54.5,-136.95 0,-56.24 18.21,-102.97 54.5,-140.08 36.3,-37.22 81.75,-55.77 136.6,-55.77 58.1,0 105.41,18.55 141.82,55.54 36.41,37.11 54.62,85.93 54.62,146.81l-0.35 17.51zm-92.19 -72.36c-6.14,-20.18 -18.2,-36.65 -36.18,-49.29 -18.09,-12.63 -38.96,-18.9 -62.85,-18.9 -25.85,0 -48.47,7.08 -68.06,21.34 -12.18,8.81 -23.54,24.47 -33.98,46.85l201.07 0zm215.8 230.99l0 64.01 -82.79 0 0 -142.63 55.54 0 128.14 -290.83 59.83 0 128.95 290.83 56.82 0 0 142.63 -88.36 0 0 -64.01 -258.13 0zm191.11 -78.62l-60.65 -156.08 -63.55 156.08 124.2 0zm213.71 78.62l0 -369.45 148.66 0c48.7,0 81.86,9.63 99.26,28.76 17.51,19.13 26.21,40.82 26.21,65.05 0,36.07 -17.86,61.93 -53.58,77.81 48.71,16.82 73.06,48.36 73.06,94.74 0,25.05 -6.5,45.81 -19.37,62.16 -12.87,16.46 -29.34,27.36 -49.17,32.81 -19.71,5.45 -47.42,8.12 -83.02,8.12l-142.05 0zm92.53 -224.03l36.07 0c15.42,0 27.25,-3.83 35.6,-11.37 8.34,-7.54 12.52,-16 12.52,-25.28 0,-13.8 -4.06,-24.47 -12.06,-32.23 -8,-7.66 -17.51,-11.48 -28.53,-11.48l-11.94 0.34 -31.66 0 0 80.02zm0 152.37l46.97 0c18.32,0 31.19,-4.18 38.61,-12.64 7.42,-8.47 11.13,-16.7 11.13,-24.7 0,-11.95 -4.17,-22.85 -12.52,-32.7 -8.35,-9.86 -23.42,-14.85 -45.11,-14.85l-39.08 0 0 84.89zm329.1 71.66l-49.28 0 0 -369.45 90.44 0 0 216.96 189.25 -216.96 44.53 0 0 369.45 -90.45 0 0 -212.55 -184.49 212.55zm555.45 -118.86l-10.44 -10.78 -109.58 129.64 -123.04 0 166.87 -189.94 -164.78 -179.51 112.95 0 128.02 138.34 0 -138.34 92.53 0 0 138.57 128.6 -138.57 113.06 0 -165.47 179.51 167.56 189.94 -123.27 0 -110.51 -130.22 -9.97 11.36 0 118.86 -92.53 0 0 -118.86zm423.02 118.86l-49.28 0 0 -369.45 90.44 0 0 216.96 189.25 -216.96 44.53 0 0 369.45 -90.45 0 0 -212.55 -184.49 212.55zm594.76 -136.48l114.33 -232.97 61.11 0 92.08 369.45 -90.69 0 -49.51 -216.85 -110.39 216.85 -38.04 0 -107.61 -216.96 -49.75 216.96 -90.45 0 92.42 -369.45 61.12 0 115.38 232.97zm492.25 -242.01c34.9,0 67.72,8.69 98.45,26.09 30.85,17.39 54.73,40.93 72.01,70.73 17.28,29.92 25.86,62.04 25.86,96.6 0,34.79 -8.7,67.25 -25.97,97.52 -17.4,30.27 -41.05,53.92 -70.97,70.97 -30.04,17.04 -62.97,25.62 -99.03,25.62 -53.11,0 -98.45,-18.78 -135.91,-56.35 -37.57,-37.69 -56.35,-83.38 -56.35,-137.07 0,-57.63 21.22,-105.64 63.66,-144.02 37.22,-33.4 79.89,-50.09 128.25,-50.09zm1.39 86.97c-28.87,0 -52.88,9.97 -72.01,29.91 -19.13,20.07 -28.76,45.58 -28.76,76.77 0,32 9.51,57.98 28.41,77.81 18.9,19.83 42.91,29.8 72.01,29.8 28.99,0 53.11,-10.09 72.48,-30.15 19.25,-20.06 28.87,-45.92 28.87,-77.46 0,-31.66 -9.51,-57.28 -28.41,-77.11 -18.9,-19.72 -43.13,-29.57 -72.59,-29.57zm631.98 -2.79l-77.11 42.44c-14.5,-15.19 -28.76,-25.62 -42.91,-31.54 -14.14,-5.91 -30.73,-8.81 -49.74,-8.81 -34.68,0 -62.74,10.32 -84.08,30.85 -21.45,20.64 -32.12,46.96 -32.12,79.2 0,31.31 10.32,56.82 30.85,76.65 20.64,19.83 47.66,29.68 81.17,29.68 41.4,0 73.64,-14.14 96.83,-42.44l72.94 50.1c-39.66,51.48 -95.55,77.22 -167.8,77.22 -65.05,0 -115.96,-19.24 -152.72,-57.63 -36.76,-38.38 -55.19,-83.26 -55.19,-134.74 0,-35.72 8.93,-68.54 26.78,-98.57 17.98,-30.03 42.91,-53.69 75.03,-70.85 32,-17.16 67.84,-25.74 107.49,-25.74 36.76,0 69.7,7.3 98.92,21.91 29.22,14.61 53.11,35.37 71.66,62.27zm50.91 -75.14l344.4 0 0 88.36 -123.15 0 0 281.09 -92.54 0 0 -281.09 -128.71 0 0 -88.36zm497.58 133.59l27.6 0c38.96,0 68.76,3.01 89.52,8.93 20.87,6.03 38.38,18.55 52.76,37.45 14.27,19.02 21.46,42.91 21.46,71.55 0,28.41 -6.5,52.18 -19.37,70.97 -12.99,18.9 -29.45,31.42 -49.51,37.68 -20.07,6.15 -48.13,9.28 -84.42,9.28l-130.57 0 0 -369.45 92.53 0 0 133.59zm0 164.2l28.3 0c16.93,0 29.1,-1.16 36.64,-3.6 7.42,-2.32 14.03,-6.84 19.71,-13.57 5.68,-6.84 8.58,-14.95 8.58,-24.69 0,-31.43 -18.2,-47.2 -54.61,-47.2l-38.62 0 0 89.06zm504.89 71.66l0 64.01 -82.79 0 0 -142.63 55.54 0 128.14 -290.83 59.83 0 128.95 290.83 56.82 0 0 142.63 -88.36 0 0 -64.01 -258.13 0zm191.11 -78.62l-60.65 -156.08 -63.55 156.08 124.2 0zm544.42 78.62l-93.81 0 -93.23 -233.43 -94.62 233.43 -93.7 0 157.24 -369.45 59.84 0 158.28 369.45zm111.56 -151.56c-20.06,-6.61 -36.53,-19.02 -49.4,-37.22 -12.87,-18.21 -19.25,-38.73 -19.25,-61.58 0,-27.36 7.77,-51.37 23.42,-71.89 15.66,-20.64 34.33,-33.63 56.01,-39.08 21.69,-5.45 55.43,-8.12 101.47,-8.12l93.93 0 0 369.45 -92.54 0 0 -133.59 -17.97 0 -88.48 133.59 -110.05 0 102.86 -151.56zm113.64 -51.6l0 -89.06 -32.47 0c-35.37,0 -53.11,14.73 -53.11,44.3 0,29.8 19.71,44.76 59.26,44.76l26.32 0zm567.63 84.3l-10.44 -10.78 -109.58 129.64 -123.04 0 166.87 -189.94 -164.78 -179.51 112.95 0 128.02 138.34 0 -138.34 92.53 0 0 138.57 128.6 -138.57 113.06 0 -165.47 179.51 167.56 189.94 -123.27 0 -110.51 -130.22 -9.97 11.36 0 118.86 -92.53 0 0 -118.86zm423.02 118.86l-49.28 0 0 -369.45 90.44 0 0 216.96 189.25 -216.96 44.53 0 0 369.45 -90.45 0 0 -212.55 -184.49 212.55zm430.21 -156.55l0 -66.09 18.32 0c12.41,0 23.19,-2.9 32.47,-8.82 9.28,-5.79 13.91,-15.19 13.91,-28.29 0,-11.25 -4.17,-20.53 -12.4,-27.83 -8.35,-7.31 -18.56,-10.9 -30.62,-10.9 -15.19,0 -34.32,7.3 -57.28,22.03l-36.18 -64.01c31.89,-25.39 67.49,-38.03 106.68,-38.03 36.07,0 65.87,9.27 89.64,27.94 23.66,18.67 35.48,43.72 35.48,75.38 0,32.12 -17.27,58.09 -51.83,77.92 46.15,16.93 69.23,47.55 69.23,91.84 0,32.94 -12.87,60.3 -38.73,81.99 -25.86,21.68 -61.58,32.46 -107.27,32.46 -50.09,0 -91.49,-14.03 -124.07,-42.09l50.79 -64.47c22.03,16.35 43.02,24.47 62.96,24.47 15.89,0 28.53,-3.83 37.92,-11.37 9.39,-7.54 14.03,-17.28 14.03,-29.22 0,-11.48 -4.4,-21.45 -13.1,-30.03 -8.7,-8.59 -20.64,-12.88 -35.83,-12.88l-24.12 0zm343.82 -80.01l139.15 0 0 -132.89 92.54 0 0 369.45 -92.54 0 0 -153.07 -139.15 0 0 153.07 -92.53 0 0 -369.45 92.53 0 0 132.89zm374.32 236.56l-49.28 0 0 -369.45 90.44 0 0 216.96 189.25 -216.96 44.53 0 0 369.45 -90.45 0 0 -212.55 -184.49 212.55z"/>
  <g id="_2998294084832">
   <path class="fil4" d="M5133.2 1903.15l-161.11 0 0 -704.28c11.74,0 45.94,-0.34 102.1,-1.01 56.33,-0.67 94.22,-1.01 113.5,-1.01 41.57,0 78.79,4.2 111.82,12.75 32.85,8.55 60.01,19.95 81.3,34.2 21.3,14.25 38.73,31.51 52.81,51.8 13.92,20.28 23.81,41.57 29.68,63.54 5.86,22.13 8.88,45.76 8.88,71.08 0,31.35 -6.03,61.36 -17.94,89.86 -12.07,28.5 -28.83,53.64 -50.63,75.44 -21.79,21.62 -49.28,39.06 -82.48,51.97 -33.36,12.91 -69.74,19.45 -109.3,19.45 -35.71,0 -61.87,-1.01 -78.63,-3.02l0 239.23zm70.24 -555.08c-2.34,0 -25.65,0.67 -70.24,2.01l0 160.61c28.16,3.69 52.81,5.36 73.76,5.36 11.4,0 22.3,-1.34 32.53,-4.02 10.39,-2.85 20.28,-7.38 30.01,-13.58 9.72,-6.2 17.43,-15.25 23.13,-26.99 5.7,-11.9 8.55,-25.99 8.55,-42.25 0,-29.5 -8.55,-50.29 -25.48,-62.7 -17.1,-12.24 -41.07,-18.44 -72.26,-18.44z"/>
   <polygon class="fil4" points="5582.92,1902.14 5582.92,1197.86 6000.36,1197.86 6000.36,1349.07 5744.03,1349.07 5744.03,1472.8 5970.52,1472.8 5970.52,1623.68 5744.03,1623.68 5744.03,1751.43 6010.76,1751.43 6010.76,1902.14 "/>
  </g>
 </g>
</svg>
